<svg xmlns="http://www.w3.org/2000/svg" viewBox="0 0 2749.04 2736.76"><path d="M2728.14 2050.24c-100.11-359.3-559.46-417.04-832.17-577.37-75.94-44.66-195.42-127.5-111.64-219.59 91.77-100.91 322.73-96.16 431.4-27.05 24.35 15.5 39.71 40.25 61.79 57.88 215.4 172.08 478.34-111.12 305.1-325.07-274.4-338.89-1004.37-285.47-1209.78 118.82-37.02 72.86-28.68 107.91-99.59 166.35-345.85 285.06-1113.14.64-798.64-512.73 115.65-188.79 361.13-299.36 573.86-328.9 31.85-4.43 201.86-13.84 201.86 40.59-19.49 51.48-49.77 19.13-83.28 16.58-45.72-3.49-133.76-9.91-156.64 36.26-65.26 131.65 32.05 325.09 190.21 309.85 73.56-7.08 240.77-155.26 316.33-202.26 113.04-70.29 297.5-115.87 317.71-267.38 18.89-141.7-79.37-197.57-192.38-245.3C1249.82-74.84 720.6-7.72 376.94 241.53c-476.68 345.71-525.55 1034.71-6.52 1367.27 143.06 91.65 306.22 139.88 474.09 160.89l-89.88 59.6c-162.05 151.61-5.17 441.3 211.03 377.27 19.77-5.84 50.4-30.34 62.13-31.46 67.88-6.4 234.97 192.52 288.73 242.87 241.47 226.15 481.57 339.59 821.12 315.63 358.46-25.31 700.36-289.1 590.5-683.37Zm-529.4 239.14c-163.04 70.49-339.37 2.87-473.79-96.98-152.79-113.48-273.49-281.23-442.45-378.66l-138.71-63.99c99.21-16.56 193.1-55.73 279.07-106.45 81.82 118.9 229.13 189.61 357.94 250.59 100.99 47.79 475.98 184.49 509.53 281.6 19.31 55.89-47.13 94.67-91.59 113.89"/><path d="M2728.14 2050.24c-100.11-359.3-559.46-417.04-832.17-577.37-75.94-44.66-195.42-127.5-111.64-219.59 91.77-100.91 322.73-96.16 431.4-27.05 24.35 15.5 39.71 40.25 61.79 57.88 215.4 172.08 478.34-111.12 305.1-325.07-274.4-338.89-1004.37-285.47-1209.78 118.82-37.02 72.86-28.68 107.91-99.59 166.35-345.85 285.06-1113.14.64-798.64-512.73 115.65-188.79 361.13-299.36 573.86-328.9 25.82-3.59 142.42-10.46 185.66 16.07 13.9 8.52 17.6 26.66 8.4 40.12-19.31 28.26-44.4 8.91-75.48.98-44.43-11.33-133.76-9.91-156.64 36.26-65.26 131.65 32.05 325.09 190.21 309.85 73.56-7.08 240.77-155.26 316.33-202.26 113.04-70.29 297.5-115.87 317.71-267.38 18.89-141.7-79.37-197.57-192.38-245.3C1249.82-74.84 720.6-7.72 376.94 241.53c-476.68 345.71-525.55 1034.71-6.52 1367.27 143.06 91.65 306.22 139.88 474.09 160.89-36.27 19.92-69.04 39.81-89.88 59.6-162.05 151.61-5.17 441.3 211.03 377.27 19.77-5.84 50.4-30.34 62.13-31.46 67.88-6.4 234.97 192.52 288.73 242.87 241.47 226.15 481.57 339.59 821.12 315.63 358.46-25.31 700.36-289.1 590.5-683.37Zm-529.4 239.14c-163.04 70.49-339.37 2.87-473.79-96.98-140.97-104.7-251.35-246.93-403.31-352.83-24.51-17.08-50.29-32.26-77.15-45.33-30.92-15.04-64.9-29.83-100.7-44.48 99.21-16.56 193.1-55.73 279.07-106.45 81.82 118.9 229.13 189.61 357.94 250.59 100.99 47.79 475.98 184.49 509.53 281.6 19.31 55.89-47.13 94.67-91.59 113.89Z"/></svg>