<svg xmlns="http://www.w3.org/2000/svg" viewBox="0 0 800 715.28"><path d="M731.93 293.89c-60.97.52-141.05 96.16-188.41 132.89-3.4 2.64-7.4 6.11-11.39 7.6v-81.16C581.7 316.98 636.3 288.27 687 253.67c17.96-12.25 54.47-35.76 57.81-58.47 4.37-29.77-19.25-33.54-42.83-34.86l-469.17.05v81.74h39.14v-43.74h173.84v164.05c-43.23 36.31-81.61 83.2-89.9 140.91-56.84 6.41-116.23-.36-165.58-30.48C74.9 402.42 54.49 240.65 134.49 135.19c59.12-77.91 148.33-104.84 243.76-90.88 39.72 5.82 71.46 22.91 98.05 52.76h39.71c-32.67-55.03-94-84.88-156.15-93.07C200.85-16.98 49.81 43.68 9.32 209.17c-46.3 189.18 85.44 339.11 273.51 346.15 24.31.91 48.89-.47 73.04-1.08 9.56 64.14 50.07 117 95.09 161.05h81.16V483.32c45.26-31.28 80.99-75.03 123.79-108.76 22.15-17.45 69.65-51.34 97.63-32.07 14.39 9.91 12.97 38.12-5.83 42.13-1.36.3-9.14 1.42-10.09 1.42h-16.69v28.78h25.91c21.99 0 43.21-19.99 49.79-39.99 14.61-44.38-20.39-81.3-64.7-80.93Zm-199.8-95.51h153.11c-20.71 20.71-48.24 34.55-71.92 51.83l-81.19 49.48zm-86.35 461.65c-27.47-30.18-45.22-71.44-45.92-112.71l45.92-12.78v125.48Zm0-176.14-40.3 10.92c7.52-24.99 22.88-47.13 40.3-66.18v55.25Z"/></svg>