<svg xmlns="http://www.w3.org/2000/svg" viewBox="0 0 800 1243.81"><path d="M-361.39 960.64c-4.49-13.46-6.93-27.87-6.93-42.85.91 14.82 3.26 29.12 6.93 42.85" style="opacity:.5;fill:#fff"/><path d="m727.32 549.36-186.03 470.3c-3.04 7.68 2.62 16.01 10.88 16.01h237.16c7.03 0 11.69 7.28 8.75 13.67l-89.59 194.48H210.67c-8.32 0-13.9-8.53-10.58-16.16l83.83-191.99L477.74 564.4c2.95-7.17-2.32-15.04-10.08-15.04h-37.58c-110.93 0-200.86 89.93-200.86 200.86v138.91c0 6.46-5.24 11.7-11.7 11.7H11.7c-6.46 0-11.7-5.24-11.7-11.7V146.37C0 65.53 65.53 0 146.37 0h340.99c6.46 0 11.7 5.24 11.7 11.7v183.89c0 6.46-5.24 11.7-11.7 11.7H240.94c-6.46 0-11.7 5.24-11.7 11.7v111.36c0 6.46 5.24 11.7 11.7 11.7h547.5c8.06 0 13.64 8.05 10.8 15.59l-71.93 191.7Z" style="fill:#fff"/></svg>