<svg xmlns="http://www.w3.org/2000/svg" viewBox="0 0 800 611.33"><path d="M729.64 404.06c-38.86 0-70.37 31.46-70.37 70.27s31.5 70.27 70.37 70.27c10.13 0 19.75-2.14 28.45-5.98-68.3 79.93-275.03 76.24-286.9-54.63-3.42-80.46 86.95-116.9 175.56-156.49 104.44-42.85 152.74-99.46 151.52-168.23C798.28 61.99 703.61 0 595.42 0 450.62 6.21 451.74 63.91 400 63.91S349.39 6.21 204.58 0C96.39 0 1.72 61.99 1.72 159.27.5 228.03 48.8 284.65 153.24 327.5c88.61 39.58 178.98 76.03 175.56 156.49-11.86 130.87-218.59 134.55-286.9 54.63 8.7 3.85 18.33 5.98 28.45 5.98 38.86 0 70.37-31.46 70.37-70.27s-31.5-70.27-70.37-70.27S0 435.52 0 474.33c.47 7.7 1.7 15.14 3.61 22.28C37.69 624.12 290.27 659.34 400 530.07c109.73 129.27 362.31 94.05 396.39-33.46 1.91-7.14 3.13-14.57 3.61-22.28 0-38.8-31.5-70.27-70.36-70.27M400 322.46c-81.27-94.36-266.17-104.65-289.48-200.3-4.94-45.77 13.09-75.43 47.54-93.57 100.18-37.13 213.5 7 241.94 113.76C428.43 35.59 541.76-8.54 641.94 28.59c34.45 18.14 52.48 47.8 47.54 93.57C666.17 217.82 481.27 228.1 400 322.46"/><path d="M-361.39 671.1c-4.49-13.46-6.93-27.87-6.93-42.85.91 14.82 3.26 29.12 6.93 42.85" style="fill:#fff;opacity:.5"/></svg>