<svg xmlns="http://www.w3.org/2000/svg" width="666.66669" height="282.78934" viewBox="0 0 666.66669 282.78934"><defs><linearGradient id="a" x1="0" x2="1" y1="0" y2="0" gradientTransform="scale(127.07014 -127.07014)rotate(64.779 1.67 -.138)" gradientUnits="userSpaceOnUse" spreadMethod="pad"><stop offset="0" style="stop-opacity:1;stop-color:#dd55fb"/><stop offset="0.0306429" style="stop-opacity:1;stop-color:#dd55fb"/><stop offset="0.894669" style="stop-opacity:1;stop-color:#fde4ad"/><stop offset="1" style="stop-opacity:1;stop-color:#fde4ad"/></linearGradient><linearGradient id="b" x1="0" x2="1" y1="0" y2="0" gradientTransform="matrix(106.48476 0 0 -106.48476 311.302 163.56)" gradientUnits="userSpaceOnUse" spreadMethod="pad"><stop offset="0" style="stop-opacity:1;stop-color:#03c3fb"/><stop offset="0.897731" style="stop-opacity:1;stop-color:#869cfb"/><stop offset="1" style="stop-opacity:1;stop-color:#869cfb"/></linearGradient><linearGradient id="c" x1="0" x2="1" y1="0" y2="0" gradientTransform="matrix(127.87717 0 0 -127.87717 190.953 163.56)" gradientUnits="userSpaceOnUse" spreadMethod="pad"><stop offset="0" style="stop-opacity:1;stop-color:#01ecbf"/><stop offset="0.0778747" style="stop-opacity:1;stop-color:#01ecbf"/><stop offset="0.932441" style="stop-opacity:1;stop-color:#0dc7fc"/><stop offset="1" style="stop-opacity:1;stop-color:#0dc7fc"/></linearGradient><linearGradient id="d" x1="0" x2="1" y1="0" y2="0" gradientTransform="scale(-106.228 106.228)rotate(-59.544 -.775 2.747)" gradientUnits="userSpaceOnUse" spreadMethod="pad"><stop offset="0" style="stop-opacity:1;stop-color:#06e1a0"/><stop offset="0.952048" style="stop-opacity:1;stop-color:#969cf0"/><stop offset="1" style="stop-opacity:1;stop-color:#969cf0"/></linearGradient><linearGradient id="e" x1="0" x2="1" y1="0" y2="0" gradientTransform="scale(88.42275 -88.42275)rotate(77.638 3.925 1.859)" gradientUnits="userSpaceOnUse" spreadMethod="pad"><stop offset="0" style="stop-opacity:1;stop-color:#ffc7a3"/><stop offset="0.0127059" style="stop-opacity:1;stop-color:#ffc7a3"/><stop offset="1" style="stop-opacity:1;stop-color:#fd8aac"/></linearGradient><linearGradient id="f" x1="0" x2="1" y1="0" y2="0" gradientTransform="matrix(81.3233 0 0 -81.3233 0 163.56)" gradientUnits="userSpaceOnUse" spreadMethod="pad"><stop offset="0" style="stop-opacity:1;stop-color:#0ac0fb"/><stop offset="0.14917" style="stop-opacity:1;stop-color:#0ac0fb"/><stop offset="0.856213" style="stop-opacity:1;stop-color:#bc79fe"/><stop offset="1" style="stop-opacity:1;stop-color:#bc79fe"/></linearGradient><linearGradient id="g" x1="0" x2="1" y1="0" y2="0" gradientTransform="matrix(0 -86.37246 -86.37246 0 486.48 209.5)" gradientUnits="userSpaceOnUse" spreadMethod="pad"><stop offset="0" style="stop-opacity:1;stop-color:#fd95ec"/><stop offset="0.0392765" style="stop-opacity:1;stop-color:#fd95ec"/><stop offset="0.919342" style="stop-opacity:1;stop-color:#9e9ff7"/><stop offset="1" style="stop-opacity:1;stop-color:#9e9ff7"/></linearGradient><linearGradient id="h" x1="0" x2="1" y1="0" y2="0" gradientTransform="scale(58.00609 -58.00609)rotate(90 3.68 2.667)" gradientUnits="userSpaceOnUse" spreadMethod="pad"><stop offset="0" style="stop-opacity:1;stop-color:#869aff"/><stop offset="0.0747116" style="stop-opacity:1;stop-color:#869aff"/><stop offset="0.916647" style="stop-opacity:1;stop-color:#04c7fb"/><stop offset="1" style="stop-opacity:1;stop-color:#04c7fb"/></linearGradient><linearGradient id="i" x1="0" x2="1" y1="0" y2="0" gradientTransform="scale(84.26631 -84.26631)rotate(90 1.215 .059)" gradientUnits="userSpaceOnUse" spreadMethod="pad"><stop offset="0" style="stop-opacity:1;stop-color:#9984fd"/><stop offset="0.207429" style="stop-opacity:1;stop-color:#9984fd"/><stop offset="0.855321" style="stop-opacity:1;stop-color:#ebb3be"/><stop offset="1" style="stop-opacity:1;stop-color:#ebb3be"/></linearGradient><linearGradient id="j" x1="0" x2="1" y1="0" y2="0" gradientTransform="scale(55.95454 -55.95454)rotate(90 3.646 2.2)" gradientUnits="userSpaceOnUse" spreadMethod="pad"><stop offset="0" style="stop-opacity:1;stop-color:#ff8bac"/><stop offset="1" style="stop-opacity:1;stop-color:#f9f"/></linearGradient><linearGradient id="k" x1="0" x2="1" y1="0" y2="0" gradientTransform="matrix(95.09278 0 0 -95.09278 93.746 13.727)" gradientUnits="userSpaceOnUse" spreadMethod="pad"><stop offset="0" style="stop-opacity:1;stop-color:#fec9a7"/><stop offset="0.0964671" style="stop-opacity:1;stop-color:#fec9a7"/><stop offset="0.862845" style="stop-opacity:1;stop-color:#ff4fff"/><stop offset="1" style="stop-opacity:1;stop-color:#ff4fff"/></linearGradient><linearGradient id="l" x1="0" x2="1" y1="0" y2="0" gradientTransform="scale(-37.74913 37.74913)rotate(-55.582 -5.088 11.795)" gradientUnits="userSpaceOnUse" spreadMethod="pad"><stop offset="0" style="stop-opacity:1;stop-color:#a0c2ff"/><stop offset="0.160633" style="stop-opacity:1;stop-color:#a0c2ff"/><stop offset="0.877768" style="stop-opacity:1;stop-color:#dd7af9"/><stop offset="1" style="stop-opacity:1;stop-color:#dd7af9"/></linearGradient><linearGradient id="m" x1="0" x2="1" y1="0" y2="0" gradientTransform="scale(54.22239 -54.22239)rotate(63.954 4.548 4.249)" gradientUnits="userSpaceOnUse" spreadMethod="pad"><stop offset="0" style="stop-opacity:1;stop-color:#ff73ff"/><stop offset="0.00875617" style="stop-opacity:1;stop-color:#ff73ff"/><stop offset="1" style="stop-opacity:1;stop-color:#f7fd6a"/></linearGradient><linearGradient id="n" x1="0" x2="1" y1="0" y2="0" gradientTransform="matrix(27.0394 0 0 -27.0394 0 128.547)" gradientUnits="userSpaceOnUse" spreadMethod="pad"><stop offset="0" style="stop-opacity:1;stop-color:#08c2fd"/><stop offset="0.0190838" style="stop-opacity:1;stop-color:#08c2fd"/><stop offset="1" style="stop-opacity:1;stop-color:#b879fe"/></linearGradient></defs><path d="M93.65 115.027h106.485l-53.242 97.064z" style="fill:url(#a);stroke:none" transform="matrix(1.33333 0 0 -1.33333 0 282.79)"/><path d="M311.303 115.027h106.484l-53.242 97.064z" style="fill:url(#b);stroke:none" transform="matrix(1.33333 0 0 -1.33333 0 282.79)"/><path d="m190.954 212.092 33.143-97.066 30.797 90.194 30.795-90.194 33.141 97.066z" style="fill:url(#c);stroke:none" transform="matrix(1.33333 0 0 -1.33333 0 282.79)"/><path d="M197.945.082H304.43l-53.243 97.065z" style="fill:url(#d);stroke:none" transform="matrix(1.33333 0 0 -1.33333 0 282.79)"/><path d="M429.899 115.027h27.04v97.064h-27.04z" style="fill:url(#e);stroke:none" transform="matrix(1.33333 0 0 -1.33333 0 282.79)"/><path d="M54.285 212.092v-20.688c0-7.497-6.077-13.575-13.574-13.575H27.039v34.263H0V150.79h40.711c7.497 0 13.574-6.077 13.574-13.574v-22.19h27.039v24.481c0 10.096-4.384 18.756-10.274 24.912 5.89 6.156 10.274 14.815 10.274 24.912v22.761z" style="fill:url(#f);stroke:none" transform="matrix(1.33333 0 0 -1.33333 0 282.79)"/><path d="M472.961 115.027h27.04v97.064h-27.04z" style="fill:url(#g);stroke:none" transform="matrix(1.33333 0 0 -1.33333 0 282.79)"/><path d="M327.829 29.295c0-16.133 18.047-29.212 40.309-29.212s40.308 13.079 40.308 29.212-18.047 29.212-40.308 29.212c-22.262 0-40.309-13.079-40.309-29.212" style="fill:url(#h);stroke:none" transform="matrix(1.33333 0 0 -1.33333 0 282.79)"/><path d="M93.746 13.727h27.216v83.42H93.746Z" style="fill:url(#i);stroke:none" transform="matrix(1.33333 0 0 -1.33333 0 282.79)"/><path d="M313.477.082h27.215v97.065h-27.215z" style="fill:url(#j);stroke:none" transform="matrix(1.33333 0 0 -1.33333 0 282.79)"/><path d="M93.746.12h95.093v27.215H93.746Z" style="fill:url(#k);stroke:none" transform="matrix(1.33333 0 0 -1.33333 0 282.79)"/><path d="M420.815 18.826C420.815 8.428 429.244 0 439.641 0s18.826 8.428 18.826 18.826-8.429 18.826-18.826 18.826-18.826-8.429-18.826-18.826" style="fill:url(#l);stroke:none" transform="matrix(1.33333 0 0 -1.33333 0 282.79)"/><path d="M327.829 67.622c0-16.308 13.22-29.527 29.527-29.527 16.306 0 29.525 13.219 29.525 29.527 0 16.306-13.219 29.525-29.525 29.525-16.307 0-29.527-13.219-29.527-29.525" style="fill:url(#m);stroke:none" transform="matrix(1.33333 0 0 -1.33333 0 282.79)"/><path d="M0 115.027h27.04v27.039H0Z" style="fill:url(#n);stroke:none" transform="matrix(1.33333 0 0 -1.33333 0 282.79)"/></svg>